<svg width="116" height="119" viewBox="0 0 116 119" fill="none" xmlns="http://www.w3.org/2000/svg">
<path d="M107.11 107.27C109.43 109.9 112.37 111.48 115.96 112.01V118.64H82.15V112.01H84.99C86.67 110.74 87.52 108.96 87.52 106.64C87.52 106.22 87.49 105.82 87.44 105.45C87.39 105.08 87.31 104.58 87.2 103.95L80.09 84.52C77.56 82.94 73.72 82.15 68.56 82.15H41.07C36.43 82.15 33.01 82.94 30.8 84.52L23.85 104.43C23.74 104.75 23.69 105.48 23.69 106.64C23.69 109.06 24.58 110.85 26.38 112.01H30.01V118.64H0V112.01C4.11 111.69 7.11 110.11 9.01 107.27L49.92 0C53.08 0.21 56.08 0.370001 58.93 0.470001C61.77 0.580001 64.4 0.630001 66.83 0.630001L107.11 107.27ZM46.76 39.34L36.96 67.3L36.33 69.99C37.17 70.41 38.25 70.75 39.57 71.02C40.89 71.28 42.54 71.42 44.55 71.42H67.46C69.14 71.42 70.59 71.31 71.8 71.1C73.01 70.89 74.04 70.62 74.88 70.31L63.82 39.34L55.13 13.59L46.76 39.34Z" fill="black"/>
</svg>
