<?xml version="1.0" encoding="UTF-8"?>
<svg id="Layer_2" data-name="Layer 2" xmlns="http://www.w3.org/2000/svg" viewBox="0 0 1303.19 157.04">
  <g id="Layer_1-2" data-name="Layer 1">
    <g>
      <path d="M107.11,142.66c2.32,2.63,5.26,4.21,8.85,4.74v6.63h-33.81v-6.63h2.84c1.68-1.27,2.53-3.05,2.53-5.37,0-.42-.03-.82-.08-1.19-.05-.37-.13-.87-.24-1.5l-7.11-19.43c-2.53-1.58-6.37-2.37-11.53-2.37h-27.49c-4.64,0-8.06.79-10.27,2.37l-6.95,19.91c-.11.32-.16,1.05-.16,2.21,0,2.42.89,4.21,2.69,5.37h3.63v6.63H0v-6.63c4.11-.32,7.11-1.9,9.01-4.74L49.92,35.39c3.16.21,6.16.37,9.01.47,2.84.11,5.47.16,7.9.16l40.28,106.64ZM46.76,74.73l-9.8,27.96-.63,2.69c.84.42,1.92.76,3.24,1.03,1.32.26,2.97.4,4.98.4h22.91c1.68,0,3.13-.11,4.34-.32,1.21-.21,2.24-.48,3.08-.79l-11.06-30.97-8.69-25.75-8.37,25.75Z"/>
      <path d="M154.19,36.65c3.26,0,6.24-.02,8.93-.08s5.34-.08,7.98-.08,5.32-.03,8.06-.08c2.74-.05,5.79-.08,9.16-.08,5.79,0,11.22.55,16.27,1.66,5.06,1.11,9.45,2.9,13.19,5.37,3.74,2.47,6.69,5.63,8.85,9.48,2.16,3.85,3.24,8.45,3.24,13.82s-.92,9.85-2.76,13.43c-1.84,3.58-4.37,6.56-7.58,8.93-3.21,2.37-7.03,4.27-11.45,5.69-4.42,1.42-9.16,2.66-14.22,3.71,4.74,2.42,8.55,5.27,11.45,8.53,2.9,3.27,5.5,7.11,7.82,11.53,1.05,2.11,2.18,4.72,3.4,7.82,1.21,3.11,2.53,6.08,3.95,8.93s2.97,5.29,4.66,7.35c1.68,2.05,3.53,3.08,5.53,3.08,1.58,0,3.1-.21,4.58-.63,1.47-.42,2.63-1.16,3.48-2.21.32.95.47,1.9.47,2.84,0,3.05-1.18,5.48-3.55,7.27-2.37,1.79-6.08,2.69-11.14,2.69-3.69,0-6.79-.5-9.32-1.5s-4.66-2.26-6.4-3.79c-1.74-1.52-3.14-3.18-4.19-4.98-1.05-1.79-1.95-3.53-2.69-5.21-2.11-4.95-3.92-9.53-5.45-13.75-1.53-4.21-3.19-8-4.98-11.37-1.79-3.37-3.92-6.27-6.4-8.69-2.48-2.42-5.66-4.32-9.56-5.69h-6.79c-4.32,0-7.9.31-10.74.95v41.08c1.16.84,2.47,1.68,3.95,2.53,1.47.84,3.1,1.58,4.9,2.21v6.63h-35.7v-6.63c1.79-.63,3.42-1.37,4.9-2.21,1.47-.84,2.79-1.68,3.95-2.53V48.18c-2.32-2-5.27-3.58-8.85-4.74v-6.79h23.07ZM165.57,47.71c-3.48,0-5.61.58-6.4,1.74-.79,1.16-1.18,3.48-1.18,6.95v31.91c1.47.85,3.58,1.27,6.32,1.27h13.11c3.9,0,7.82-.13,11.77-.4,3.95-.26,7.53-1.05,10.74-2.37,3.21-1.32,5.82-3.42,7.82-6.32,2-2.9,3-6.98,3-12.24,0-4.11-.69-7.48-2.05-10.11-1.37-2.63-3.27-4.71-5.69-6.24-2.42-1.52-5.32-2.6-8.69-3.24-3.37-.63-7.06-.95-11.06-.95h-17.69Z"/>
      <path d="M288.79,43.45c-3.58,1.16-6.53,2.74-8.85,4.74v94.48c1.16.84,2.47,1.68,3.95,2.53,1.47.84,3.1,1.58,4.9,2.21v6.63h-35.7v-6.63c1.79-.63,3.42-1.37,4.9-2.21,1.47-.84,2.79-1.68,3.95-2.53V48.18c-2.32-2-5.27-3.58-8.85-4.74v-6.79h35.7v6.79Z"/>
      <path d="M400.32,61.61l-6.32.32c-1.16-2.84-2.29-5.16-3.4-6.95-1.11-1.79-2.4-3.21-3.87-4.27-1.48-1.05-3.24-1.76-5.29-2.13-2.05-.37-4.61-.55-7.66-.55h-22.12c-6.85,0-11.48,1.37-13.9,4.11v30.65c2.53,1.9,5.58,2.84,9.16,2.84h12.8c4.21,0,7.48-.68,9.8-2.05,2.32-1.37,3.84-3.9,4.58-7.58h6.95l-.95,30.02h-7.58c-.42-3.37-1.61-5.92-3.55-7.66-1.95-1.74-5.35-2.61-10.19-2.61h-13.59c-1.16,0-2.27.11-3.32.32-1.05.21-2.11.42-3.16.63-.21.64-.42,1.35-.63,2.14-.21.79-.32,1.61-.32,2.45v38.52c1.68,1.06,3.61,1.9,5.77,2.54,2.16.63,5.13.95,8.93.95h17.54c3.48,0,6.5-.32,9.08-.95,2.58-.63,4.98-1.6,7.19-2.92,2.21-1.32,4.29-2.92,6.24-4.82,1.95-1.9,3.97-4.11,6.08-6.63l6.16.63-3.16,25.44h-90.68v-6.63c1.79-.63,3.42-1.37,4.9-2.21,1.47-.84,2.79-1.68,3.95-2.53V48.18c-2.32-2-5.27-3.58-8.85-4.74v-6.79h89.42v24.96ZM370.15,23.06c-2.74-1.37-5.9-2.71-9.48-4.03-3.58-1.32-7.01-2.66-10.27-4.03-3.27-1.37-6-2.79-8.22-4.27-2.21-1.47-3.32-3.11-3.32-4.9,0-1.27.37-2.55,1.11-3.87.74-1.31,2.26-1.97,4.58-1.97,1.79.53,3.74,1.58,5.84,3.16,2.11,1.58,4.32,3.37,6.64,5.37,2.32,2,4.74,4.05,7.27,6.16,2.53,2.11,5.11,3.95,7.74,5.53l-1.9,2.84Z"/>
      <path d="M501.12,72.51c-2.53-8.63-6.82-15.4-12.88-20.3-6.06-4.9-12.93-7.35-20.62-7.35-3.48,0-6.71.37-9.72,1.11-3,.74-5.66,1.84-7.98,3.32-2.32,1.48-4.13,3.34-5.45,5.61-1.32,2.27-1.97,4.92-1.97,7.98,0,3.79,1.42,7.03,4.27,9.72,2.84,2.68,6.95,5.03,12.32,7.03,4.42,1.69,8.87,3.11,13.35,4.27,4.48,1.16,8.79,2.37,12.95,3.63,4.16,1.27,8.06,2.68,11.69,4.27,3.63,1.58,6.79,3.58,9.48,6s4.82,5.43,6.4,9c1.58,3.58,2.37,7.95,2.37,13.11s-.95,9.61-2.84,13.98c-1.9,4.37-4.53,8.19-7.9,11.45-3.37,3.27-7.42,5.82-12.16,7.66-4.74,1.84-9.95,2.76-15.64,2.76s-10.72-.21-14.77-.63c-4.06-.42-7.42-.95-10.11-1.58s-4.79-1.32-6.32-2.05c-1.53-.74-2.66-1.37-3.4-1.9-1.16,1.05-2.74,2.27-4.74,3.63-2,1.37-3.63,2.37-4.9,3-1.05-1.37-2.05-3.32-3-5.84s-1.82-5.29-2.61-8.29c-.79-3-1.53-6.08-2.21-9.24-.69-3.16-1.29-6.11-1.82-8.85l11.38-4.11c.84,4.32,2.53,8.06,5.06,11.22,2.53,3.16,5.53,5.8,9,7.9,3.48,2.11,7.29,3.69,11.45,4.74,4.16,1.05,8.24,1.58,12.24,1.58,3.48,0,6.87-.5,10.19-1.5,3.32-1,6.29-2.45,8.93-4.34,2.63-1.9,4.76-4.24,6.4-7.03,1.63-2.79,2.45-5.92,2.45-9.4,0-3.79-1.05-6.9-3.16-9.32-2.11-2.42-4.85-4.45-8.22-6.08-3.37-1.63-7.24-3-11.61-4.11-4.37-1.11-8.85-2.26-13.43-3.48-4.58-1.21-9.06-2.6-13.43-4.19-4.37-1.58-8.24-3.63-11.61-6.16-3.37-2.53-6.11-5.69-8.21-9.48-2.11-3.79-3.16-8.48-3.16-14.06,0-5.06,1-9.5,3-13.35,2-3.84,4.66-7.11,7.98-9.79,3.32-2.69,7.08-4.76,11.3-6.24,4.21-1.47,8.53-2.37,12.95-2.69,6.95,0,13.24.77,18.88,2.29,5.63,1.53,9.5,3.35,11.61,5.45.42-.42,1.21-.87,2.37-1.34,1.16-.48,2.4-.92,3.71-1.34,1.32-.42,2.58-.81,3.79-1.18,1.21-.37,2.08-.66,2.61-.87.63,1.68,1.32,3.87,2.05,6.55.74,2.69,1.42,5.53,2.05,8.53.63,3,1.21,6.06,1.74,9.16.53,3.11.89,5.92,1.11,8.45l-11.22,2.68Z"/>
      <path d="M636.82,36.65c6.95,0,13.27.55,18.96,1.66,5.69,1.11,10.56,2.82,14.61,5.13,4.05,2.32,7.16,5.29,9.32,8.93,2.16,3.63,3.24,7.98,3.24,13.03,0,13.59-7.04,22.22-21.12,25.91,3.36.53,6.76,1.55,10.17,3.08,3.42,1.53,6.49,3.5,9.23,5.92,2.73,2.42,4.94,5.27,6.62,8.53,1.68,3.27,2.53,6.9,2.53,10.9,0,5.79-.97,10.85-2.92,15.17-1.95,4.32-4.71,7.93-8.28,10.82-3.57,2.9-7.81,5.06-12.7,6.48-4.89,1.42-10.28,2.13-16.17,2.13-8.2,0-16.22-.05-24.05-.16-7.83-.11-15.9-.16-24.21-.16h-14.68v-6.63c1.79-.63,3.42-1.32,4.9-2.05,1.47-.74,2.79-1.63,3.95-2.68V48.18c-2.32-2-5.27-3.58-8.85-4.74v-6.79h49.45ZM628.92,47.39c-7.16,0-12.06,1.16-14.69,3.48v30.65c0,2.53.21,4.64.63,6.32,1.68.32,3.63.47,5.85.47,6,0,11.71-.16,17.14-.47,5.42-.32,10.19-1.16,14.3-2.53,4.11-1.37,7.4-3.48,9.87-6.32,2.47-2.84,3.71-6.79,3.71-11.85,0-6.42-2.03-11.32-6.08-14.69-4.06-3.37-10.4-5.06-19.04-5.06h-11.69ZM621.02,98.74c-3.16,0-5.08.48-5.77,1.42-.69.95-1.03,2.83-1.03,5.67v34.16c2.42,2.41,7.05,3.62,13.9,3.62h11.38c4.21,0,8.29-.26,12.24-.79s7.45-1.57,10.51-3.15c3.05-1.58,5.5-3.83,7.35-6.77,1.84-2.94,2.77-6.77,2.77-11.49s-.9-8.4-2.69-11.33c-1.79-2.94-4.19-5.25-7.19-6.93-3-1.68-6.4-2.83-10.19-3.46s-7.69-.95-11.69-.95h-19.59Z"/>
      <path d="M811.55,43.45c-3.06,1.05-5.79,2.64-8.22,4.74v51.19c0,6.95-.53,13.85-1.58,20.7-1.05,6.85-3.32,13.01-6.79,18.48-3.48,5.48-8.56,9.93-15.25,13.35-6.69,3.42-15.62,5.13-26.78,5.13-10.22,0-18.35-1.74-24.41-5.21-6.06-3.48-10.69-8.03-13.9-13.66-3.21-5.63-5.29-12.06-6.24-19.27-.95-7.21-1.42-14.56-1.42-22.04v-48.66c-2.53-2-5.21-3.58-8.06-4.74v-6.79h34.91v6.79c-3.47,1.05-6.42,2.64-8.85,4.74v60.82c0,4.84.6,9.45,1.81,13.82,1.21,4.37,3.1,8.19,5.67,11.45,2.57,3.27,5.91,5.87,10.01,7.82,4.1,1.95,9.04,2.92,14.81,2.92,7.25,0,13.06-1.29,17.42-3.87,4.36-2.58,7.7-5.95,10.01-10.11s3.81-8.82,4.49-13.98c.68-5.16,1.03-10.27,1.03-15.32v-53.56c-2.32-2-5.27-3.58-8.85-4.74v-6.79h30.17v6.79Z"/>
      <path d="M854.99,36.65c3.26,0,6.24-.02,8.93-.08,2.68-.05,5.34-.08,7.98-.08s5.32-.03,8.06-.08c2.74-.05,5.79-.08,9.16-.08,5.79,0,11.22.55,16.27,1.66,5.06,1.11,9.45,2.9,13.19,5.37,3.74,2.47,6.69,5.63,8.85,9.48,2.16,3.85,3.24,8.45,3.24,13.82s-.92,9.85-2.76,13.43c-1.84,3.58-4.37,6.56-7.58,8.93-3.21,2.37-7.03,4.27-11.45,5.69-4.43,1.42-9.16,2.66-14.22,3.71,4.74,2.42,8.55,5.27,11.45,8.53,2.9,3.27,5.5,7.11,7.82,11.53,1.05,2.11,2.18,4.72,3.4,7.82,1.21,3.11,2.53,6.08,3.95,8.93s2.97,5.29,4.66,7.35c1.68,2.05,3.53,3.08,5.53,3.08,1.58,0,3.1-.21,4.58-.63,1.47-.42,2.63-1.16,3.48-2.21.32.95.47,1.9.47,2.84,0,3.05-1.18,5.48-3.55,7.27s-6.08,2.69-11.14,2.69c-3.69,0-6.79-.5-9.32-1.5s-4.66-2.26-6.4-3.79c-1.74-1.52-3.13-3.18-4.19-4.98-1.05-1.79-1.95-3.53-2.69-5.21-2.11-4.95-3.92-9.53-5.45-13.75-1.53-4.21-3.19-8-4.98-11.37-1.79-3.37-3.92-6.27-6.4-8.69-2.48-2.42-5.66-4.32-9.56-5.69h-6.79c-4.32,0-7.9.31-10.74.95v41.08c1.16.84,2.47,1.68,3.95,2.53,1.47.84,3.11,1.58,4.9,2.21v6.63h-35.71v-6.63c1.79-.63,3.42-1.37,4.9-2.21,1.47-.84,2.79-1.68,3.95-2.53V48.18c-2.32-2-5.27-3.58-8.85-4.74v-6.79h23.07ZM866.37,47.71c-3.47,0-5.61.58-6.4,1.74-.79,1.16-1.19,3.48-1.19,6.95v31.91c1.47.85,3.58,1.27,6.32,1.27h13.11c3.9,0,7.82-.13,11.77-.4,3.95-.26,7.53-1.05,10.74-2.37,3.21-1.32,5.82-3.42,7.82-6.32,2-2.9,3-6.98,3-12.24,0-4.11-.69-7.48-2.05-10.11-1.37-2.63-3.27-4.71-5.69-6.24-2.42-1.52-5.32-2.6-8.69-3.24s-7.06-.95-11.06-.95h-17.7Z"/>
      <path d="M1043.31,61.61l-6.32.32c-1.16-2.84-2.29-5.16-3.4-6.95-1.11-1.79-2.4-3.21-3.87-4.27-1.48-1.05-3.24-1.76-5.29-2.13-2.05-.37-4.61-.55-7.66-.55h-22.12c-6.85,0-11.48,1.37-13.9,4.11v30.65c2.53,1.9,5.58,2.84,9.16,2.84h12.8c4.21,0,7.48-.68,9.79-2.05,2.32-1.37,3.84-3.9,4.58-7.58h6.95l-.95,30.02h-7.59c-.42-3.37-1.61-5.92-3.55-7.66-1.95-1.74-5.35-2.61-10.19-2.61h-13.59c-1.16,0-2.27.11-3.32.32-1.05.21-2.11.42-3.16.63-.21.64-.42,1.35-.63,2.14-.21.79-.32,1.61-.32,2.45v38.52c1.68,1.06,3.6,1.9,5.76,2.54,2.16.63,5.13.95,8.93.95h17.53c3.48,0,6.5-.32,9.08-.95,2.58-.63,4.98-1.6,7.19-2.92,2.21-1.32,4.29-2.92,6.24-4.82,1.95-1.9,3.97-4.11,6.08-6.63l6.16.63-3.16,25.44h-90.68v-6.63c1.79-.63,3.42-1.37,4.9-2.21,1.48-.84,2.79-1.68,3.95-2.53V48.18c-2.32-2-5.27-3.58-8.85-4.74v-6.79h89.42v24.96Z"/>
      <path d="M1168.9,142.66c2.32,2.63,5.27,4.21,8.85,4.74v6.63h-33.81v-6.63h2.84c1.68-1.27,2.53-3.05,2.53-5.37,0-.42-.03-.82-.08-1.19-.05-.37-.13-.87-.24-1.5l-7.11-19.43c-2.53-1.58-6.37-2.37-11.53-2.37h-27.49c-4.64,0-8.06.79-10.27,2.37l-6.95,19.91c-.11.32-.16,1.05-.16,2.21,0,2.42.89,4.21,2.68,5.37h3.64v6.63h-30.02v-6.63c4.11-.32,7.11-1.9,9-4.74l40.92-107.27c3.16.21,6.16.37,9,.47,2.84.11,5.47.16,7.9.16l40.28,106.64ZM1108.55,74.73l-9.79,27.96-.63,2.69c.84.42,1.92.76,3.24,1.03,1.31.26,2.97.4,4.98.4h22.91c1.68,0,3.13-.11,4.34-.32s2.24-.48,3.08-.79l-11.06-30.97-8.69-25.75-8.37,25.75Z"/>
      <path d="M1303.19,43.45c-3.06,1.05-5.79,2.64-8.22,4.74v51.19c0,6.95-.53,13.85-1.58,20.7-1.05,6.85-3.32,13.01-6.79,18.48-3.48,5.48-8.56,9.93-15.25,13.35-6.69,3.42-15.62,5.13-26.78,5.13-10.22,0-18.35-1.74-24.41-5.21-6.06-3.48-10.69-8.03-13.9-13.66-3.21-5.63-5.29-12.06-6.24-19.27-.95-7.21-1.42-14.56-1.42-22.04v-48.66c-2.53-2-5.21-3.58-8.06-4.74v-6.79h34.91v6.79c-3.47,1.05-6.42,2.64-8.85,4.74v60.82c0,4.84.6,9.45,1.81,13.82,1.21,4.37,3.1,8.19,5.67,11.45,2.57,3.27,5.91,5.87,10.01,7.82,4.1,1.95,9.04,2.92,14.81,2.92,7.25,0,13.06-1.29,17.42-3.87,4.36-2.58,7.7-5.95,10.01-10.11s3.81-8.82,4.49-13.98c.68-5.16,1.03-10.27,1.03-15.32v-53.56c-2.32-2-5.27-3.58-8.85-4.74v-6.79h30.17v6.79Z"/>
    </g>
  </g>
</svg>